<?xml version="1.0" encoding="UTF-8" standalone="no"?>
<svg
   version="1.1"
   width="1600"
   height="1200"
   viewBox="0 0 1600 1200"
   id="svg1"
   sodipodi:docname="0.svg"
   inkscape:version="1.4.2 (f4327f4, 2025-05-13)"
   xmlns:inkscape="http://www.inkscape.org/namespaces/inkscape"
   xmlns:sodipodi="http://sodipodi.sourceforge.net/DTD/sodipodi-0.dtd"
   xmlns="http://www.w3.org/2000/svg"
   xmlns:svg="http://www.w3.org/2000/svg">
  <defs
     id="defs1" />
  <sodipodi:namedview
     id="namedview1"
     pagecolor="#ffffff"
     bordercolor="#000000"
     borderopacity="0.25"
     inkscape:showpageshadow="2"
     inkscape:pageopacity="0.0"
     inkscape:pagecheckerboard="0"
     inkscape:deskcolor="#d1d1d1"
     showgrid="false"
     inkscape:zoom="0.310625"
     inkscape:cx="800"
     inkscape:cy="600.40241"
     inkscape:window-width="960"
     inkscape:window-height="470"
     inkscape:window-x="1913"
     inkscape:window-y="-6"
     inkscape:window-maximized="1"
     inkscape:current-layer="svg1" />
  <path
     style="fill:#000000"
     d="m 1599.5,992.02541 c -6.9341,-2.93943 -39.5651,-42.03827 -57.1897,-68.52541 -15.3234,-23.0287 -37.3709,-65.41884 -47.85,-92 -44.9701,-114.06986 -49.6932,-248.63039 -12.8883,-367.17789 20.5388,-66.15475 54.6213,-127.99882 97.1717,-176.32211 12.7758,-14.50908 19.5951,-21.28569 21.7361,-21.59992 1.3579,-0.19929 1.5202,38.58047 1.5202,363.1884 0,199.87634 -0.1125,363.383 -0.25,363.34813 -0.1375,-0.0349 -1.15,-0.4449 -2.25,-0.9112 z"
     id="path7" />
  <path
     style="fill:#ffffff"
     d="m 1599.5,992.02541 c -6.9341,-2.93943 -39.5651,-42.03827 -57.1897,-68.52541 -15.3234,-23.0287 -37.3709,-65.41884 -47.85,-92 -44.9701,-114.06986 -49.6932,-248.63039 -12.8883,-367.17789 20.5388,-66.15475 54.6213,-127.99882 97.1717,-176.32211 12.7758,-14.50908 19.5951,-21.28569 21.7361,-21.59992 1.3579,-0.19929 1.5202,38.58047 1.5202,363.1884 0,199.87634 -0.1125,363.383 -0.25,363.34813 -0.1375,-0.0349 -1.15,-0.4449 -2.25,-0.9112 z"
     id="path1"
     sodipodi:nodetypes="sssssssss" />
  <circle
     style="fill:#000000"
     id="path2"
     cx="1477.666"
     cy="637.42456"
     r="16.096579" />
</svg>
