<?xml version="1.0" encoding="UTF-8" standalone="no"?>
<svg
   version="1.1"
   width="1600"
   height="1200"
   viewBox="0 0 1600 1200"
   id="svg1"
   sodipodi:docname="1.svg"
   inkscape:version="1.4.2 (f4327f4, 2025-05-13)"
   xmlns:inkscape="http://www.inkscape.org/namespaces/inkscape"
   xmlns:sodipodi="http://sodipodi.sourceforge.net/DTD/sodipodi-0.dtd"
   xmlns="http://www.w3.org/2000/svg"
   xmlns:svg="http://www.w3.org/2000/svg">
  <defs
     id="defs1" />
  <sodipodi:namedview
     id="namedview1"
     pagecolor="#ffffff"
     bordercolor="#000000"
     borderopacity="0.25"
     inkscape:showpageshadow="2"
     inkscape:pageopacity="0.0"
     inkscape:pagecheckerboard="0"
     inkscape:deskcolor="#d1d1d1"
     inkscape:zoom="0.67333333"
     inkscape:cx="799.75248"
     inkscape:cy="600"
     inkscape:window-width="1920"
     inkscape:window-height="1010"
     inkscape:window-x="-6"
     inkscape:window-y="-6"
     inkscape:window-maximized="1"
     inkscape:current-layer="svg1" />
  <path
     style="fill:#000000"
     d="m 1060.3613,657.01002 c -2.0365,-0.82199 -2.1731,-1.73838 -2.8593,-19.18662 -1.0776,-27.40022 -0.3047,-74.4214 1.2488,-75.97453 1.0009,-1.00065 13.388,-0.79684 62,1.02011 33.4121,1.24882 69.7492,2.68112 80.7492,3.18289 11,0.50177 62.3,2.50077 114,4.44224 51.7,1.94147 101.5989,3.82226 110.8865,4.17953 l 16.8865,0.6496 -0.6458,10.08838 c -0.3551,5.54861 -0.9359,22.61661 -1.2905,37.92888 -0.4347,18.7672 -1.002,27.95796 -1.7408,28.20088 -0.6027,0.19821 -59.1459,1.29903 -130.0959,2.44628 -70.95,1.14725 -151.5,2.51105 -179,3.03067 -59.5189,1.12462 -67.334,1.1237 -70.1387,-0.008 z"
     id="path15" />
  <path
     style="fill:#ffffff"
     d="m 1060.3613,657.01002 c -2.0365,-0.82199 -2.1731,-1.73838 -2.8593,-19.18662 -1.0776,-27.40022 -0.3047,-74.4214 1.2488,-75.97453 1.0009,-1.00065 13.388,-0.79684 62,1.02011 33.4121,1.24882 69.7492,2.68112 80.7492,3.18289 11,0.50177 62.3,2.50077 114,4.44224 51.7,1.94147 101.5989,3.82226 110.8865,4.17953 l 16.8865,0.6496 -0.6458,10.08838 c -0.3551,5.54861 -0.9359,22.61661 -1.2905,37.92888 -0.4347,18.7672 -1.002,27.95796 -1.7408,28.20088 -0.6027,0.19821 -59.1459,1.29903 -130.0959,2.44628 -70.95,1.14725 -151.5,2.51105 -179,3.03067 -59.5189,1.12462 -67.334,1.1237 -70.1387,-0.008 z"
     id="path1" />
  <circle
     style="fill:#000000"
     id="path2"
     cx="1068.5643"
     cy="593.31683"
     r="6.6831684" />
</svg>
