<?xml version="1.0" encoding="UTF-8" standalone="no"?>
<svg version="1.1" width="1600" height="1200" viewBox="0 0 1600 1200" xmlns="http://www.w3.org/2000/svg">
  <path style="fill:#000000" d="m 1024,544.94053 c -25.02437,-1.31145 -95.99735,-4.50394 -132,-5.93759 -36.50619,-1.4537 -92.90036,-3.89996 -115,-4.98845 -10.725,-0.52825 -30.975,-1.4139 -45,-1.9681 -14.025,-0.5542 -29.325,-1.25338 -34,-1.55373 -4.675,-0.30035 -19.975,-0.97492 -34,-1.49906 -49.6078,-1.8539 -74.54018,-2.99398 -77.88782,-3.56155 l -3.38783,-0.57439 0.66096,-11.17883 c 2.44946,-41.42813 10.27465,-110.26624 12.9019,-113.49794 0.73755,-0.90724 2.49937,-1.14696 5.64259,-0.76776 6.41674,0.77412 30.6331,3.25643 49.5702,5.08123 8.8,0.84797 20.275,1.98752 25.5,2.53232 24.22539,2.52594 79.08175,8.06303 93.5,9.43771 8.8,0.83901 20.275,1.97304 25.5,2.52006 5.225,0.54702 18.275,1.89819 29,3.00261 10.725,1.10441 23.775,2.451 29,2.99242 5.225,0.54141 16.475,1.65556 25,2.47588 8.525,0.82032 29,2.86401 45.5,4.54152 16.5,1.67752 36.525,3.7135 44.5,4.5244 21.73872,2.21041 68.8733,6.91003 81,8.07624 9.4866,0.91231 10,1.13419 10,4.32216 0,1.58487 -0.9167,8.21379 -2.037,14.73095 -2.826,16.43873 -6.6237,46.95444 -8.0706,64.84937 -0.6671,8.25 -1.6458,15.5625 -2.1751,16.25 -1.0331,1.34206 -1.6498,1.34701 -23.7173,0.19053 z" id="path17"/>
  <path style="fill:#ffffff" d="m 1024,544.94053 c -25.02437,-1.31145 -95.99735,-4.50394 -132,-5.93759 -36.50619,-1.4537 -92.90036,-3.89996 -115,-4.98845 -10.725,-0.52825 -30.975,-1.4139 -45,-1.9681 -14.025,-0.5542 -29.325,-1.25338 -34,-1.55373 -4.675,-0.30035 -19.975,-0.97492 -34,-1.49906 -49.6078,-1.8539 -74.54018,-2.99398 -77.88782,-3.56155 l -3.38783,-0.57439 0.66096,-11.17883 c 2.44946,-41.42813 10.27465,-110.26624 12.9019,-113.49794 0.73755,-0.90724 2.49937,-1.14696 5.64259,-0.76776 6.41674,0.77412 30.6331,3.25643 49.5702,5.08123 8.8,0.84797 20.275,1.98752 25.5,2.53232 24.22539,2.52594 79.08175,8.06303 93.5,9.43771 8.8,0.83901 20.275,1.97304 25.5,2.52006 5.225,0.54702 18.275,1.89819 29,3.00261 10.725,1.10441 23.775,2.451 29,2.99242 5.225,0.54141 16.475,1.65556 25,2.47588 8.525,0.82032 29,2.86401 45.5,4.54152 16.5,1.67752 36.525,3.7135 44.5,4.5244 21.73872,2.21041 68.8733,6.91003 81,8.07624 9.4866,0.91231 10,1.13419 10,4.32216 0,1.58487 -0.9167,8.21379 -2.037,14.73095 -2.826,16.43873 -6.6237,46.95444 -8.0706,64.84937 -0.6671,8.25 -1.6458,15.5625 -2.1751,16.25 -1.0331,1.34206 -1.6498,1.34701 -23.7173,0.19053 z" id="path17"/>
</svg>
