<?xml version="1.0" encoding="UTF-8" standalone="no"?>
<svg version="1.1" width="1600" height="1200" viewBox="0 0 1600 1200" xmlns="http://www.w3.org/2000/svg">
  <path style="fill:#000000" d="m 632.25,947.92835 c -1.2375,-0.47515 -2.25,-1.07411 -2.25,-1.33103 0,-0.25693 -2.45484,-8.93393 -5.45519,-19.28223 -9.59633,-33.09799 -24.39818,-97.64887 -23.14201,-100.92238 0.49382,-1.28687 0.41291,-1.27798 40.0972,-4.40564 13.75,-1.08369 30.4,-2.41564 37,-2.95988 31.69002,-2.61321 52.09709,-4.23669 88,-7.00082 21.45,-1.65142 44.175,-3.46169 50.5,-4.02283 14.47329,-1.28403 67.66889,-5.53105 100.5,-8.02368 13.75,-1.04394 35.8,-2.78851 49,-3.87682 13.2,-1.08831 33.45,-2.70345 45,-3.5892 11.55,-0.88576 28.4087,-2.25751 37.4638,-3.04834 9.0551,-0.79083 16.7924,-1.10659 17.1941,-0.70168 0.4016,0.4049 2.7319,8.61118 5.1785,18.23618 5.5989,22.02683 12.4108,44.53468 18.8501,62.28475 2.7505,7.58161 4.7733,14.37751 4.4953,15.10199 -0.5263,1.37168 -1.2777,1.51365 -24.1818,4.56895 -7.7,1.02715 -35.6,4.84825 -62,8.49135 -26.4,3.64309 -61.05,8.41408 -77,10.60219 -15.95,2.18812 -31.925,4.39997 -35.5,4.91524 -3.575,0.51527 -11.675,1.64308 -18,2.50626 -6.325,0.86317 -20.95,2.88222 -32.5,4.48677 -11.55,1.60455 -24.825,3.41334 -29.5,4.01954 -4.675,0.60619 -21.325,2.8798 -37,5.05247 -15.675,2.17266 -35.025,4.83773 -43,5.92238 -7.975,1.08464 -27.775,3.79624 -44,6.02577 -16.225,2.22953 -34.675,4.7293 -41,5.55504 -6.325,0.82575 -12.625,1.67195 -14,1.88045 -1.375,0.2085 -3.5125,-0.01 -4.75,-0.4848 z" id="path8"/>
  <path style="fill:#ffffff" d="m 632.25,947.92835 c -1.2375,-0.47515 -2.25,-1.07411 -2.25,-1.33103 0,-0.25693 -2.45484,-8.93393 -5.45519,-19.28223 -9.59633,-33.09799 -24.39818,-97.64887 -23.14201,-100.92238 0.49382,-1.28687 0.41291,-1.27798 40.0972,-4.40564 13.75,-1.08369 30.4,-2.41564 37,-2.95988 31.69002,-2.61321 52.09709,-4.23669 88,-7.00082 21.45,-1.65142 44.175,-3.46169 50.5,-4.02283 14.47329,-1.28403 67.66889,-5.53105 100.5,-8.02368 13.75,-1.04394 35.8,-2.78851 49,-3.87682 13.2,-1.08831 33.45,-2.70345 45,-3.5892 11.55,-0.88576 28.4087,-2.25751 37.4638,-3.04834 9.0551,-0.79083 16.7924,-1.10659 17.1941,-0.70168 0.4016,0.4049 2.7319,8.61118 5.1785,18.23618 5.5989,22.02683 12.4108,44.53468 18.8501,62.28475 2.7505,7.58161 4.7733,14.37751 4.4953,15.10199 -0.5263,1.37168 -1.2777,1.51365 -24.1818,4.56895 -7.7,1.02715 -35.6,4.84825 -62,8.49135 -26.4,3.64309 -61.05,8.41408 -77,10.60219 -15.95,2.18812 -31.925,4.39997 -35.5,4.91524 -3.575,0.51527 -11.675,1.64308 -18,2.50626 -6.325,0.86317 -20.95,2.88222 -32.5,4.48677 -11.55,1.60455 -24.825,3.41334 -29.5,4.01954 -4.675,0.60619 -21.325,2.8798 -37,5.05247 -15.675,2.17266 -35.025,4.83773 -43,5.92238 -7.975,1.08464 -27.775,3.79624 -44,6.02577 -16.225,2.22953 -34.675,4.7293 -41,5.55504 -6.325,0.82575 -12.625,1.67195 -14,1.88045 -1.375,0.2085 -3.5125,-0.01 -4.75,-0.4848 z" id="path8"/>
</svg>
