<?xml version="1.0" encoding="UTF-8" standalone="no"?>
<svg version="1.1" width="1600" height="1200" viewBox="0 0 1600 1200" xmlns="http://www.w3.org/2000/svg">
  <path style="fill:#000000" d="m 1034.5,424.45319 c -12.1,-1.28931 -31.45,-3.27492 -43,-4.41246 -11.55,-1.13753 -24.825,-2.49159 -29.5,-3.00902 -8.07687,-0.89395 -15.94093,-1.70933 -39.25,-4.06964 -5.6375,-0.57086 -13.85,-1.44942 -18.25,-1.95236 -4.4,-0.50294 -12.95,-1.39811 -19,-1.98927 -23.53816,-2.29997 -51.01777,-5.08792 -74,-7.5077 -13.2,-1.38981 -35.25,-3.63509 -49,-4.9895 -13.75,-1.35441 -29.275,-2.91143 -34.5,-3.46005 -5.225,-0.54861 -16.025,-1.67322 -24,-2.49913 -17.68482,-1.83147 -31.57742,-3.29667 -43.5,-4.58777 -4.95,-0.53604 -18.45,-1.88191 -30,-2.99083 -11.55,-1.10892 -23.37637,-2.49408 -26.28081,-3.07814 l -5.28082,-1.06191 0.6122,-3.6727 c 6.42713,-38.55785 25.65105,-116.8029 29.68929,-120.84114 1.18399,-1.18399 5.42046,-0.73085 28.82407,3.08311 15.08984,2.45911 41.61107,6.76259 58.93607,9.56329 17.325,2.8007 36.9,5.96663 43.5,7.0354 6.6,1.06877 24.375,3.94704 39.5,6.39617 15.125,2.44912 41.675,6.73388 59,9.52169 40.4255,6.50497 46.28886,7.46332 65,10.62408 8.525,1.44008 18.2,2.99448 21.5,3.45423 6.40472,0.89229 21.65536,3.3337 62.5,10.00537 14.025,2.29088 38.6758,6.31301 54.7796,8.93807 16.1037,2.62506 29.5232,5.01649 29.821,5.3143 0.2978,0.29781 -1.7323,7.12397 -4.5114,15.16923 -6.7863,19.64577 -13.0964,41.26559 -18.4633,63.25865 -2.442,10.00734 -4.7334,18.66984 -5.092,19.25 -0.8765,1.41823 -4.3342,1.24647 -30.0339,-1.49197 z" id="path20"/>
  <path style="fill:#ffffff" d="m 1034.5,424.45319 c -12.1,-1.28931 -31.45,-3.27492 -43,-4.41246 -11.55,-1.13753 -24.825,-2.49159 -29.5,-3.00902 -8.07687,-0.89395 -15.94093,-1.70933 -39.25,-4.06964 -5.6375,-0.57086 -13.85,-1.44942 -18.25,-1.95236 -4.4,-0.50294 -12.95,-1.39811 -19,-1.98927 -23.53816,-2.29997 -51.01777,-5.08792 -74,-7.5077 -13.2,-1.38981 -35.25,-3.63509 -49,-4.9895 -13.75,-1.35441 -29.275,-2.91143 -34.5,-3.46005 -5.225,-0.54861 -16.025,-1.67322 -24,-2.49913 -17.68482,-1.83147 -31.57742,-3.29667 -43.5,-4.58777 -4.95,-0.53604 -18.45,-1.88191 -30,-2.99083 -11.55,-1.10892 -23.37637,-2.49408 -26.28081,-3.07814 l -5.28082,-1.06191 0.6122,-3.6727 c 6.42713,-38.55785 25.65105,-116.8029 29.68929,-120.84114 1.18399,-1.18399 5.42046,-0.73085 28.82407,3.08311 15.08984,2.45911 41.61107,6.76259 58.93607,9.56329 17.325,2.8007 36.9,5.96663 43.5,7.0354 6.6,1.06877 24.375,3.94704 39.5,6.39617 15.125,2.44912 41.675,6.73388 59,9.52169 40.4255,6.50497 46.28886,7.46332 65,10.62408 8.525,1.44008 18.2,2.99448 21.5,3.45423 6.40472,0.89229 21.65536,3.3337 62.5,10.00537 14.025,2.29088 38.6758,6.31301 54.7796,8.93807 16.1037,2.62506 29.5232,5.01649 29.821,5.3143 0.2978,0.29781 -1.7323,7.12397 -4.5114,15.16923 -6.7863,19.64577 -13.0964,41.26559 -18.4633,63.25865 -2.442,10.00734 -4.7334,18.66984 -5.092,19.25 -0.8765,1.41823 -4.3342,1.24647 -30.0339,-1.49197 z" id="path20"/>
</svg>
