<?xml version="1.0" encoding="UTF-8" standalone="no"?>
<svg version="1.1" width="1600" height="1200" viewBox="0 0 1600 1200" xmlns="http://www.w3.org/2000/svg">
  <path style="fill:#000000" d="m 693,1087.3544 c -1.51882,-0.4188 -4.82422,-5.7397 -14.8184,-23.8544 -14.25578,-25.8389 -41.54767,-91.4977 -39.86011,-95.8954 0.28278,-0.73692 2.87464,-1.62133 5.84335,-1.99389 2.93434,-0.36825 17.93516,-2.43454 33.33516,-4.59176 15.4,-2.15722 34.975,-4.87881 43.5,-6.04798 8.525,-1.16918 26.525,-3.68477 40,-5.59022 13.475,-1.90545 27.65,-3.87457 31.5,-4.37582 7.24492,-0.94326 84.95573,-11.77076 122.20581,-17.02703 11.66319,-1.64576 32.58819,-4.55889 46.5,-6.47361 13.9118,-1.91473 31.81919,-4.40045 39.79419,-5.52384 7.975,-1.12338 29.125,-4.07204 47,-6.55258 17.875,-2.48055 37.0578,-5.16658 42.6283,-5.96898 5.5706,-0.80239 10.5689,-1.45889 11.1072,-1.45889 0.5384,0 2.899,4.3875 5.2458,9.75 10.0695,23.00894 28.638,57.26867 41.4444,76.46698 4.1937,6.28684 4.1724,8.28332 -0.096,9.02296 -4.186,0.72531 -197.23429,39.34146 -208.3294,41.67286 -8.17318,1.7175 -52.39164,10.5558 -138,27.5834 -51.72013,10.2872 -74.58397,14.8623 -90.31617,18.0725 -9.2489,1.8872 -16.8989,3.3791 -17,3.3153 -0.10111,-0.064 -0.85883,-0.3021 -1.68383,-0.5296 z" id="path4"/>
  <path style="fill:#ffffff" d="m 693,1087.3544 c -1.51882,-0.4188 -4.82422,-5.7397 -14.8184,-23.8544 -14.25578,-25.8389 -41.54767,-91.4977 -39.86011,-95.8954 0.28278,-0.73692 2.87464,-1.62133 5.84335,-1.99389 2.93434,-0.36825 17.93516,-2.43454 33.33516,-4.59176 15.4,-2.15722 34.975,-4.87881 43.5,-6.04798 8.525,-1.16918 26.525,-3.68477 40,-5.59022 13.475,-1.90545 27.65,-3.87457 31.5,-4.37582 7.24492,-0.94326 84.95573,-11.77076 122.20581,-17.02703 11.66319,-1.64576 32.58819,-4.55889 46.5,-6.47361 13.9118,-1.91473 31.81919,-4.40045 39.79419,-5.52384 7.975,-1.12338 29.125,-4.07204 47,-6.55258 17.875,-2.48055 37.0578,-5.16658 42.6283,-5.96898 5.5706,-0.80239 10.5689,-1.45889 11.1072,-1.45889 0.5384,0 2.899,4.3875 5.2458,9.75 10.0695,23.00894 28.638,57.26867 41.4444,76.46698 4.1937,6.28684 4.1724,8.28332 -0.096,9.02296 -4.186,0.72531 -197.23429,39.34146 -208.3294,41.67286 -8.17318,1.7175 -52.39164,10.5558 -138,27.5834 -51.72013,10.2872 -74.58397,14.8623 -90.31617,18.0725 -9.2489,1.8872 -16.8989,3.3791 -17,3.3153 -0.10111,-0.064 -0.85883,-0.3021 -1.68383,-0.5296 z" id="path4"/>
</svg>
