<?xml version="1.0" encoding="UTF-8" standalone="no"?>
<svg version="1.1" width="1600" height="1200" viewBox="0 0 1600 1200" xmlns="http://www.w3.org/2000/svg">
  <path style="fill:#000000" d="m 1095,310.30403 c -1.375,-0.23299 -18.925,-3.09892 -39,-6.36873 -20.075,-3.26982 -40.325,-6.60527 -45,-7.41212 -4.675,-0.80685 -17.05,-2.83527 -27.5,-4.50761 -10.45,-1.67234 -22.825,-3.70855 -27.5,-4.5249 -4.675,-0.81636 -16.825,-2.82147 -27,-4.4558 -10.175,-1.63434 -37.85,-6.14573 -61.5,-10.02533 -23.65,-3.87959 -61,-10.0024 -83,-13.60624 -22,-3.60383 -46.75,-7.66835 -55,-9.03227 -8.25,-1.36391 -25.8,-4.23968 -39,-6.3906 -47.1822,-7.68827 -53.78605,-8.86648 -54.67415,-9.75458 -1.40001,-1.40001 11.73709,-37.50439 23.18759,-63.72585 6.51601,-14.92156 21.90345,-45.70832 25.3874,-50.79441 C 685.83038,117.61867 687,115.272 687,114.49077 687,112.80116 690.05159,111 692.9142,111 c 1.12513,0 17.01721,3.3937 35.31574,7.54156 18.29853,4.14787 40.13256,9.09787 48.52006,11 8.3875,1.90214 22.3375,5.05982 31,7.01707 8.6625,1.95725 20.475,4.63511 26.25,5.95081 35.54662,8.09845 47.90535,10.89325 68.5,15.49056 12.65,2.82384 30.875,6.92618 40.5,9.11632 9.625,2.19014 22.45,5.10345 28.5,6.47404 17.99211,4.07597 23.55802,5.34814 32.5,7.42831 4.675,1.08754 16.6,3.78902 26.5,6.00329 9.9,2.21427 21.825,4.90675 26.5,5.98329 4.675,1.07654 21.55,4.89684 37.5,8.48956 15.95,3.59272 33.95,7.66382 40,9.04689 6.05,1.38307 12.0125,2.73556 13.25,3.00554 1.2375,0.26997 2.25,1.00371 2.25,1.63053 0,0.62682 -2.6478,5.23075 -5.884,10.23095 -13.081,20.21129 -29.4745,51.19952 -38.6669,73.09128 -3.5904,8.55048 -6.0378,12.66509 -7.3541,12.36382 -0.3272,-0.0749 -1.72,-0.32681 -3.095,-0.55979 z" id="path23"/>
  <path style="fill:#ffffff" d="m 1095,310.30403 c -1.375,-0.23299 -18.925,-3.09892 -39,-6.36873 -20.075,-3.26982 -40.325,-6.60527 -45,-7.41212 -4.675,-0.80685 -17.05,-2.83527 -27.5,-4.50761 -10.45,-1.67234 -22.825,-3.70855 -27.5,-4.5249 -4.675,-0.81636 -16.825,-2.82147 -27,-4.4558 -10.175,-1.63434 -37.85,-6.14573 -61.5,-10.02533 -23.65,-3.87959 -61,-10.0024 -83,-13.60624 -22,-3.60383 -46.75,-7.66835 -55,-9.03227 -8.25,-1.36391 -25.8,-4.23968 -39,-6.3906 -47.1822,-7.68827 -53.78605,-8.86648 -54.67415,-9.75458 -1.40001,-1.40001 11.73709,-37.50439 23.18759,-63.72585 6.51601,-14.92156 21.90345,-45.70832 25.3874,-50.79441 C 685.83038,117.61867 687,115.272 687,114.49077 687,112.80116 690.05159,111 692.9142,111 c 1.12513,0 17.01721,3.3937 35.31574,7.54156 18.29853,4.14787 40.13256,9.09787 48.52006,11 8.3875,1.90214 22.3375,5.05982 31,7.01707 8.6625,1.95725 20.475,4.63511 26.25,5.95081 35.54662,8.09845 47.90535,10.89325 68.5,15.49056 12.65,2.82384 30.875,6.92618 40.5,9.11632 9.625,2.19014 22.45,5.10345 28.5,6.47404 17.99211,4.07597 23.55802,5.34814 32.5,7.42831 4.675,1.08754 16.6,3.78902 26.5,6.00329 9.9,2.21427 21.825,4.90675 26.5,5.98329 4.675,1.07654 21.55,4.89684 37.5,8.48956 15.95,3.59272 33.95,7.66382 40,9.04689 6.05,1.38307 12.0125,2.73556 13.25,3.00554 1.2375,0.26997 2.25,1.00371 2.25,1.63053 0,0.62682 -2.6478,5.23075 -5.884,10.23095 -13.081,20.21129 -29.4745,51.19952 -38.6669,73.09128 -3.5904,8.55048 -6.0378,12.66509 -7.3541,12.36382 -0.3272,-0.0749 -1.72,-0.32681 -3.095,-0.55979 z" id="path23"/>
</svg>
