<?xml version="1.0" encoding="UTF-8" standalone="no"?>
<svg version="1.1" width="1600" height="1200" viewBox="0 0 1600 1200" xmlns="http://www.w3.org/2000/svg">
  <path style="fill:#000000" d="m 70.818828,671.37138 c -1.451078,-0.42425 -1.624385,-1.68087 -1.266264,-9.18145 0.2282,-4.77946 0.659155,-19.93993 0.957679,-33.68993 1.873733,-86.30412 2.420228,-102.83047 3.433928,-103.84417 0.770115,-0.77012 15.412476,-0.57719 51.316709,0.67613 77.37809,2.70107 152.74374,5.51322 179.23912,6.68803 13.2,0.58529 78.3865,3.04423 144.85889,5.46431 66.47239,2.42008 121.01372,4.55498 121.20296,4.74421 0.53914,0.53915 0.95116,122.5934 0.41559,123.11439 -0.81183,0.78975 -201.7455,3.54228 -338.47744,4.6367 -71.5,0.57229 -136.75,1.23015 -145,1.46192 -8.25,0.23176 -15.756527,0.2002 -16.681172,-0.0701 z" id="path13"/>
  <path style="fill:#ffffff" d="m 70.818828,671.37138 c -1.451078,-0.42425 -1.624385,-1.68087 -1.266264,-9.18145 0.2282,-4.77946 0.659155,-19.93993 0.957679,-33.68993 1.873733,-86.30412 2.420228,-102.83047 3.433928,-103.84417 0.770115,-0.77012 15.412476,-0.57719 51.316709,0.67613 77.37809,2.70107 152.74374,5.51322 179.23912,6.68803 13.2,0.58529 78.3865,3.04423 144.85889,5.46431 66.47239,2.42008 121.01372,4.55498 121.20296,4.74421 0.53914,0.53915 0.95116,122.5934 0.41559,123.11439 -0.81183,0.78975 -201.7455,3.54228 -338.47744,4.6367 -71.5,0.57229 -136.75,1.23015 -145,1.46192 -8.25,0.23176 -15.756527,0.2002 -16.681172,-0.0701 z" id="path13"/>
</svg>
