<?xml version="1.0" encoding="UTF-8" standalone="no"?>
<svg version="1.1" width="1600" height="1200" viewBox="0 0 1600 1200" xmlns="http://www.w3.org/2000/svg">
  <path style="fill:#000000" d="m 89.305188,844.98925 c -1.418307,-0.57123 -2.396538,-2.05241 -2.764998,-4.18661 -0.697751,-4.04152 -4.01441,-27.38962 -6.577411,-46.30264 -1.043467,-7.7 -3.051604,-21.65 -4.462526,-31 -1.410923,-9.35 -3.421426,-23.525 -4.467785,-31.5 -1.046359,-7.975 -2.617948,-19.4227 -3.49242,-25.43934 -1.287255,-8.8567 -1.347224,-11.16709 -0.314998,-12.13567 0.932608,-0.87511 17.788539,-1.50217 62.77495,-2.33531 33.825,-0.62644 67.8,-1.35204 75.5,-1.61244 13.83361,-0.46783 61.11127,-1.53528 155.5,-3.51093 26.675,-0.55833 66.275,-1.43681 88,-1.95218 21.725,-0.51536 55.025,-1.18803 74,-1.49481 18.975,-0.30678 37.95415,-0.78188 42.17589,-1.05577 l 7.67589,-0.49799 0.56487,5.26722 c 0.31067,2.89697 1.27393,14.04222 2.14056,24.76722 1.87145,23.15987 4.43536,46.25075 8.13501,73.26476 2.35994,17.23179 2.52107,19.93927 1.25731,21.12654 -1.00061,0.94004 -8.10811,1.86921 -22.94953,3.00021 -11.825,0.90114 -29.825,2.28919 -40,3.08457 -10.175,0.79538 -24.8,1.92633 -32.5,2.51324 -7.7,0.5869 -30.875,2.4061 -51.5,4.04266 -20.625,1.63655 -43.575,3.43719 -51,4.00141 -15.21958,1.15653 -64.74511,5.0009 -103,7.99528 -14.025,1.09779 -34.275,2.66655 -45,3.48611 -10.725,0.81956 -36.6,2.82742 -57.5,4.46191 -20.9,1.63449 -44.3,3.44122 -52,4.01496 -7.7,0.57374 -18.725,1.48495 -24.5,2.02492 -12.224047,1.14296 -12.791599,1.14197 -15.694812,-0.0273 z" id="path10"/>
  <path style="fill:#ffffff" d="m 89.305188,844.98925 c -1.418307,-0.57123 -2.396538,-2.05241 -2.764998,-4.18661 -0.697751,-4.04152 -4.01441,-27.38962 -6.577411,-46.30264 -1.043467,-7.7 -3.051604,-21.65 -4.462526,-31 -1.410923,-9.35 -3.421426,-23.525 -4.467785,-31.5 -1.046359,-7.975 -2.617948,-19.4227 -3.49242,-25.43934 -1.287255,-8.8567 -1.347224,-11.16709 -0.314998,-12.13567 0.932608,-0.87511 17.788539,-1.50217 62.77495,-2.33531 33.825,-0.62644 67.8,-1.35204 75.5,-1.61244 13.83361,-0.46783 61.11127,-1.53528 155.5,-3.51093 26.675,-0.55833 66.275,-1.43681 88,-1.95218 21.725,-0.51536 55.025,-1.18803 74,-1.49481 18.975,-0.30678 37.95415,-0.78188 42.17589,-1.05577 l 7.67589,-0.49799 0.56487,5.26722 c 0.31067,2.89697 1.27393,14.04222 2.14056,24.76722 1.87145,23.15987 4.43536,46.25075 8.13501,73.26476 2.35994,17.23179 2.52107,19.93927 1.25731,21.12654 -1.00061,0.94004 -8.10811,1.86921 -22.94953,3.00021 -11.825,0.90114 -29.825,2.28919 -40,3.08457 -10.175,0.79538 -24.8,1.92633 -32.5,2.51324 -7.7,0.5869 -30.875,2.4061 -51.5,4.04266 -20.625,1.63655 -43.575,3.43719 -51,4.00141 -15.21958,1.15653 -64.74511,5.0009 -103,7.99528 -14.025,1.09779 -34.275,2.66655 -45,3.48611 -10.725,0.81956 -36.6,2.82742 -57.5,4.46191 -20.9,1.63449 -44.3,3.44122 -52,4.01496 -7.7,0.57374 -18.725,1.48495 -24.5,2.02492 -12.224047,1.14296 -12.791599,1.14197 -15.694812,-0.0273 z" id="path10"/>
  <path style="fill:#ffffff" d="m 89.305188,844.98925 c -1.418307,-0.57123 -2.396538,-2.05241 -2.764998,-4.18661 -0.697751,-4.04152 -4.01441,-27.38962 -6.577411,-46.30264 -1.043467,-7.7 -3.051604,-21.65 -4.462526,-31 -1.410923,-9.35 -3.421426,-23.525 -4.467785,-31.5 -1.046359,-7.975 -2.617948,-19.4227 -3.49242,-25.43934 -1.287255,-8.8567 -1.347224,-11.16709 -0.314998,-12.13567 0.932608,-0.87511 17.788539,-1.50217 62.77495,-2.33531 33.825,-0.62644 67.8,-1.35204 75.5,-1.61244 13.83361,-0.46783 61.11127,-1.53528 155.5,-3.51093 26.675,-0.55833 66.275,-1.43681 88,-1.95218 21.725,-0.51536 55.025,-1.18803 74,-1.49481 18.975,-0.30678 37.95415,-0.78188 42.17589,-1.05577 l 7.67589,-0.49799 0.56487,5.26722 c 0.31067,2.89697 1.27393,14.04222 2.14056,24.76722 1.87145,23.15987 4.43536,46.25075 8.13501,73.26476 2.35994,17.23179 2.52107,19.93927 1.25731,21.12654 -1.00061,0.94004 -8.10811,1.86921 -22.94953,3.00021 -11.825,0.90114 -29.825,2.28919 -40,3.08457 -10.175,0.79538 -24.8,1.92633 -32.5,2.51324 -7.7,0.5869 -30.875,2.4061 -51.5,4.04266 -20.625,1.63655 -43.575,3.43719 -51,4.00141 -15.21958,1.15653 -64.74511,5.0009 -103,7.99528 -14.025,1.09779 -34.275,2.66655 -45,3.48611 -10.725,0.81956 -36.6,2.82742 -57.5,4.46191 -20.9,1.63449 -44.3,3.44122 -52,4.01496 -7.7,0.57374 -18.725,1.48495 -24.5,2.02492 -12.224047,1.14296 -12.791599,1.14197 -15.694812,-0.0273 z" id="path10"/>
</svg>
