<?xml version="1.0" encoding="UTF-8" standalone="no"?>
<svg version="1.1" width="1600" height="1200" viewBox="0 0 1600 1200" xmlns="http://www.w3.org/2000/svg">
  <path style="fill:#ffffff" d="m 531.5,523.4494 c -28.17431,-1.34375 -82.29354,-3.76268 -122.5,-5.4753 -12.925,-0.55054 -33.85,-1.44257 -46.5,-1.98227 -12.65,-0.5397 -33.8,-1.43921 -47,-1.99892 -13.2,-0.5597 -38.175,-1.68603 -55.5,-2.50295 -17.325,-0.81692 -42.075,-1.92319 -55,-2.45838 -120.808895,-5.00241 -128.786763,-5.41834 -130.154147,-6.78573 -0.905927,-0.90592 -0.313706,-5.53534 2.553734,-19.96265 3.613845,-18.18277 4.476885,-22.59121 6.711626,-34.2832 0.578182,-3.025 1.44242,-7.3 1.920529,-9.5 0.47811,-2.2 1.581489,-7.6 2.451954,-12 0.870466,-4.4 1.981182,-9.8 2.468258,-12 0.487077,-2.2 1.408697,-6.7 2.048046,-10 0.639349,-3.3 1.545828,-7.8 2.014399,-10 0.468571,-2.2 1.332067,-6.7 1.918879,-10 3.216472,-18.08814 6.441282,-32.17195 7.659532,-33.45166 1.60118,-1.68197 8.49033,-1.16671 66.40719,4.96677 20.72042,2.19432 43.08785,4.44028 59.5,5.97452 10.60555,0.99142 14.8633,1.42295 59,5.97975 15.4,1.58994 35.425,3.60379 44.5,4.47522 16.53601,1.58787 19.25516,1.86447 54.5,5.54379 10.45,1.0909 30.7,3.11899 45,4.50685 14.3,1.38787 32.525,3.19585 40.5,4.01774 30.57492,3.151 53.88022,5.54067 63.5,6.51115 5.5,0.55485 16.47047,1.67641 24.37881,2.49235 7.90835,0.81594 16.09429,1.48352 18.19099,1.48352 2.09669,0 4.06415,0.40772 4.37214,0.90605 0.30798,0.49833 -0.54898,8.96764 -1.90435,18.82069 C 578.39434,446.84656 573,503.78902 573,517.40512 c 0,2.85718 -0.54,5.73488 -1.2,6.39488 -1.40435,1.40435 -3.97271,1.38201 -40.3,-0.3506 z" id="path18"/>
</svg>
