<?xml version="1.0" encoding="UTF-8" standalone="no"?>
<svg version="1.1" width="1600" height="1200" viewBox="0 0 1600 1200" xmlns="http://www.w3.org/2000/svg">
  <path style="fill:#000000" d="m 143.33794,1015.0014 c -1.18913,-0.4796 -2.4704,-1.9135 -2.84725,-3.1866 -0.37685,-1.2732 -2.64119,-8.6148 -5.03185,-16.3148 -2.39066,-7.7 -5.3248,-17.375 -6.52032,-21.5 -1.19551,-4.125 -2.77461,-9.3 -3.50912,-11.5 -1.99428,-5.97333 -16.71247,-53.56509 -19.94722,-64.5 -0.73215,-2.475 -3.19817,-10.30092 -5.48004,-17.39092 -3.429394,-10.65546 -3.919375,-13.1123 -2.825503,-14.16748 0.853944,-0.82374 8.417703,-1.83884 21.323363,-2.86171 11,-0.87183 28.325,-2.26546 38.5,-3.09696 10.175,-0.8315 27.275,-2.19527 38,-3.03061 10.725,-0.83533 30.75,-2.41789 44.5,-3.51679 13.75,-1.0989 33.325,-2.64341 43.5,-3.43225 10.175,-0.78884 20.975,-1.68893 24,-2.00019 3.025,-0.31127 17.2,-1.44249 31.5,-2.51383 14.3,-1.07133 37.25,-2.86029 51,-3.97546 31.55719,-2.5594 95.76283,-7.66239 113.5,-9.02085 12.22931,-0.93663 45.06815,-3.56906 74.94238,-6.00753 6.29331,-0.51369 11.60306,-0.77331 11.79944,-0.57693 0.19638,0.19638 2.79762,12.44731 5.78053,27.22428 5.69092,28.19216 12.36103,55.81451 19.48488,80.69108 3.00354,10.48843 3.9335,15.13542 3.17976,15.88916 -0.58592,0.58592 -7.28019,1.91003 -14.87615,2.94246 -37.96393,5.16001 -58.73782,8.01306 -67.81084,9.31301 -5.5,0.78802 -16.975,2.36583 -25.5,3.50623 -8.525,1.1404 -28.325,3.84671 -44,6.01402 -15.675,2.16731 -40.2,5.54363 -54.5,7.50294 -14.3,1.9593 -33.875,4.66825 -43.5,6.01989 -9.625,1.35163 -24.475,3.37344 -33,4.49289 -8.525,1.11945 -20,2.69204 -25.5,3.49464 -9.70668,1.41646 -29.64242,4.16504 -61.5,8.47911 -15.04615,2.0375 -45.08804,6.1848 -83,11.4581 -10.175,1.4153 -18.725,2.5426 -19,2.5051 -0.275,-0.038 -1.47293,-0.4605 -2.66206,-0.94 z" id="path5"/>
  <path style="fill:#ffffff" d="m 143.33794,1015.0014 c -1.18913,-0.4796 -2.4704,-1.9135 -2.84725,-3.1866 -0.37685,-1.2732 -2.64119,-8.6148 -5.03185,-16.3148 -2.39066,-7.7 -5.3248,-17.375 -6.52032,-21.5 -1.19551,-4.125 -2.77461,-9.3 -3.50912,-11.5 -1.99428,-5.97333 -16.71247,-53.56509 -19.94722,-64.5 -0.73215,-2.475 -3.19817,-10.30092 -5.48004,-17.39092 -3.429394,-10.65546 -3.919375,-13.1123 -2.825503,-14.16748 0.853944,-0.82374 8.417703,-1.83884 21.323363,-2.86171 11,-0.87183 28.325,-2.26546 38.5,-3.09696 10.175,-0.8315 27.275,-2.19527 38,-3.03061 10.725,-0.83533 30.75,-2.41789 44.5,-3.51679 13.75,-1.0989 33.325,-2.64341 43.5,-3.43225 10.175,-0.78884 20.975,-1.68893 24,-2.00019 3.025,-0.31127 17.2,-1.44249 31.5,-2.51383 14.3,-1.07133 37.25,-2.86029 51,-3.97546 31.55719,-2.5594 95.76283,-7.66239 113.5,-9.02085 12.22931,-0.93663 45.06815,-3.56906 74.94238,-6.00753 6.29331,-0.51369 11.60306,-0.77331 11.79944,-0.57693 0.19638,0.19638 2.79762,12.44731 5.78053,27.22428 5.69092,28.19216 12.36103,55.81451 19.48488,80.69108 3.00354,10.48843 3.9335,15.13542 3.17976,15.88916 -0.58592,0.58592 -7.28019,1.91003 -14.87615,2.94246 -37.96393,5.16001 -58.73782,8.01306 -67.81084,9.31301 -5.5,0.78802 -16.975,2.36583 -25.5,3.50623 -8.525,1.1404 -28.325,3.84671 -44,6.01402 -15.675,2.16731 -40.2,5.54363 -54.5,7.50294 -14.3,1.9593 -33.875,4.66825 -43.5,6.01989 -9.625,1.35163 -24.475,3.37344 -33,4.49289 -8.525,1.11945 -20,2.69204 -25.5,3.49464 -9.70668,1.41646 -29.64242,4.16504 -61.5,8.47911 -15.04615,2.0375 -45.08804,6.1848 -83,11.4581 -10.175,1.4153 -18.725,2.5426 -19,2.5051 -0.275,-0.038 -1.47293,-0.4605 -2.66206,-0.94 z" id="path5"/>
</svg>
