<?xml version="1.0" encoding="UTF-8" standalone="no"?>
<svg version="1.1" width="1600" height="1200" viewBox="0 0 1600 1200" xmlns="http://www.w3.org/2000/svg">
  <path style="fill:#000000" d="m 570.5,376.93111 c -3.85,-0.46857 -22.75,-2.45706 -42,-4.41888 -19.25,-1.96182 -43.775,-4.46851 -54.5,-5.57042 -31.67933,-3.25482 -36.94536,-3.78977 -48.5,-4.92686 -6.05,-0.59538 -21.35,-2.18008 -34,-3.52155 -12.65,-1.34147 -43.25,-4.48056 -68,-6.97574 -24.75,-2.49518 -50.85,-5.18485 -58,-5.97703 -7.15,-0.79219 -20.425,-2.13494 -29.5,-2.98391 -9.075,-0.84896 -20.55,-2.00711 -25.5,-2.57367 -8.50413,-0.97334 -18.80808,-2.03593 -67.5,-6.96088 -23.46631,-2.3735 -25.98966,-2.72803 -27.86096,-3.91448 -1.29801,-0.82296 1.56286,-9.61039 13.87153,-42.60769 1.02581,-2.75 2.972,-8.15 4.32488,-12 1.35287,-3.85 2.93468,-8.125 3.51513,-9.5 0.58045,-1.375 2.7178,-7 4.74966,-12.5 2.03187,-5.5 4.78087,-12.925 6.10889,-16.5 1.32801,-3.575 2.80213,-7.85 3.27581,-9.5 0.47368,-1.65 2.27991,-6.825 4.01383,-11.5 4.44437,-11.98287 6.43653,-17.40905 9.54561,-26 1.49284,-4.125 3.32436,-8.15223 4.07005,-8.94939 1.49521,-1.59845 1.32071,-1.6229 82.38557,11.54456 21.725,3.52882 52.1,8.45167 67.5,10.93967 52.29587,8.44883 57.98909,9.37101 76.5,12.39144 29.52541,4.81766 67.17672,10.8818 84.5,13.60961 8.8,1.38569 19.825,3.16899 24.5,3.96288 4.675,0.79389 16.825,2.78629 27,4.42754 10.175,1.64126 30.875,5.00595 46,7.47708 15.125,2.47113 29.90082,4.80435 32.83516,5.18492 6.15549,0.79834 6.89838,1.86524 5.40485,7.76207 -0.57806,2.28229 -4.24648,16.64786 -8.15206,31.92349 C 600.82044,313.7876 591.6856,356.31622 589.31898,372 l -0.82992,5.5 -5.49453,0.14152 c -3.02199,0.0778 -8.64453,-0.24185 -12.49453,-0.71041 z" id="path21"/>
  <path style="fill:#ffffff" d="m 570.5,376.93111 c -3.85,-0.46857 -22.75,-2.45706 -42,-4.41888 -19.25,-1.96182 -43.775,-4.46851 -54.5,-5.57042 -31.67933,-3.25482 -36.94536,-3.78977 -48.5,-4.92686 -6.05,-0.59538 -21.35,-2.18008 -34,-3.52155 -12.65,-1.34147 -43.25,-4.48056 -68,-6.97574 -24.75,-2.49518 -50.85,-5.18485 -58,-5.97703 -7.15,-0.79219 -20.425,-2.13494 -29.5,-2.98391 -9.075,-0.84896 -20.55,-2.00711 -25.5,-2.57367 -8.50413,-0.97334 -18.80808,-2.03593 -67.5,-6.96088 -23.46631,-2.3735 -25.98966,-2.72803 -27.86096,-3.91448 -1.29801,-0.82296 1.56286,-9.61039 13.87153,-42.60769 1.02581,-2.75 2.972,-8.15 4.32488,-12 1.35287,-3.85 2.93468,-8.125 3.51513,-9.5 0.58045,-1.375 2.7178,-7 4.74966,-12.5 2.03187,-5.5 4.78087,-12.925 6.10889,-16.5 1.32801,-3.575 2.80213,-7.85 3.27581,-9.5 0.47368,-1.65 2.27991,-6.825 4.01383,-11.5 4.44437,-11.98287 6.43653,-17.40905 9.54561,-26 1.49284,-4.125 3.32436,-8.15223 4.07005,-8.94939 1.49521,-1.59845 1.32071,-1.6229 82.38557,11.54456 21.725,3.52882 52.1,8.45167 67.5,10.93967 52.29587,8.44883 57.98909,9.37101 76.5,12.39144 29.52541,4.81766 67.17672,10.8818 84.5,13.60961 8.8,1.38569 19.825,3.16899 24.5,3.96288 4.675,0.79389 16.825,2.78629 27,4.42754 10.175,1.64126 30.875,5.00595 46,7.47708 15.125,2.47113 29.90082,4.80435 32.83516,5.18492 6.15549,0.79834 6.89838,1.86524 5.40485,7.76207 -0.57806,2.28229 -4.24648,16.64786 -8.15206,31.92349 C 600.82044,313.7876 591.6856,356.31622 589.31898,372 l -0.82992,5.5 -5.49453,0.14152 c -3.02199,0.0778 -8.64453,-0.24185 -12.49453,-0.71041 z" id="path21"/>
</svg>
