<?xml version="1.0" encoding="UTF-8" standalone="no"?>
<svg
   version="1.1"
   width="1600"
   height="1200"
   viewBox="0 0 1600 1200"
   id="svg1"
   sodipodi:docname="2.svg"
   inkscape:version="1.4.2 (f4327f4, 2025-05-13)"
   xmlns:inkscape="http://www.inkscape.org/namespaces/inkscape"
   xmlns:sodipodi="http://sodipodi.sourceforge.net/DTD/sodipodi-0.dtd"
   xmlns="http://www.w3.org/2000/svg"
   xmlns:svg="http://www.w3.org/2000/svg">
  <defs
     id="defs1" />
  <sodipodi:namedview
     id="namedview1"
     pagecolor="#ffffff"
     bordercolor="#000000"
     borderopacity="0.25"
     inkscape:showpageshadow="2"
     inkscape:pageopacity="0.0"
     inkscape:pagecheckerboard="0"
     inkscape:deskcolor="#d1d1d1"
     inkscape:zoom="0.67333333"
     inkscape:cx="799.75248"
     inkscape:cy="600"
     inkscape:window-width="1920"
     inkscape:window-height="1010"
     inkscape:window-x="-6"
     inkscape:window-y="-6"
     inkscape:window-maximized="1"
     inkscape:current-layer="svg1" />
  <path
     style="fill:#000000"
     d="m 1074.797,768.31972 c -0.9367,-0.24655 -1.9398,-1.20685 -2.2291,-2.134 -1.1516,-3.68995 -7.5585,-43.66039 -9.4869,-59.18572 -3.1585,-25.42771 -3.6207,-33.54844 -1.9676,-34.57006 1.3232,-0.81779 19.9306,-1.29029 192.3866,-4.88531 143.008,-2.98115 166.0554,-3.4989 177.1831,-3.98031 l 11.183,-0.4838 0.529,5.20974 c 0.2909,2.86536 1.2342,12.40974 2.0963,21.20974 0.862,8.8 2.7439,23.33769 4.182,32.30597 1.7395,10.84815 2.2806,16.64 1.6167,17.30391 -0.5488,0.54887 -11.9762,1.8579 -25.394,2.90897 -13.4179,1.05106 -33.1711,2.60783 -43.8961,3.45948 -10.725,0.85166 -31.2,2.42998 -45.5,3.50738 -27.3651,2.06176 -85.8022,6.66126 -96,7.55602 -3.3,0.28954 -23.55,1.86061 -45,3.49127 -44.4237,3.37715 -85.6612,6.5889 -102.5,7.98315 -12.0519,0.99789 -14.4074,1.03946 -17.203,0.30357 z"
     id="path12" />
  <path
     style="fill:#ffffff"
     d="m 1074.797,768.31972 c -0.9367,-0.24655 -1.9398,-1.20685 -2.2291,-2.134 -1.1516,-3.68995 -7.5585,-43.66039 -9.4869,-59.18572 -3.1585,-25.42771 -3.6207,-33.54844 -1.9676,-34.57006 1.3232,-0.81779 19.9306,-1.29029 192.3866,-4.88531 143.008,-2.98115 166.0554,-3.4989 177.1831,-3.98031 l 11.183,-0.4838 0.529,5.20974 c 0.2909,2.86536 1.2342,12.40974 2.0963,21.20974 0.862,8.8 2.7439,23.33769 4.182,32.30597 1.7395,10.84815 2.2806,16.64 1.6167,17.30391 -0.5488,0.54887 -11.9762,1.8579 -25.394,2.90897 -13.4179,1.05106 -33.1711,2.60783 -43.8961,3.45948 -10.725,0.85166 -31.2,2.42998 -45.5,3.50738 -27.3651,2.06176 -85.8022,6.66126 -96,7.55602 -3.3,0.28954 -23.55,1.86061 -45,3.49127 -44.4237,3.37715 -85.6612,6.5889 -102.5,7.98315 -12.0519,0.99789 -14.4074,1.03946 -17.203,0.30357 z"
     id="path1" />
  <circle
     style="fill:#000000"
     id="path2"
     cx="1076.7623"
     cy="688.099"
     r="6.6831684" />
</svg>
