<?xml version="1.0" encoding="UTF-8" standalone="no"?>
<svg version="1.1" width="1600" height="1200" viewBox="0 0 1600 1200" xmlns="http://www.w3.org/2000/svg">
  <path style="fill:#000000" d="m 225.32299,1179.9958 c -1.19735,-0.4825 -3.05588,-2.8165 -4.13007,-5.1866 -1.07418,-2.37 -5.65491,-11.9592 -10.17939,-21.3092 -4.52448,-9.35 -10.27213,-21.275 -12.77254,-26.5 -2.50041,-5.225 -8.58658,-17.825 -13.52482,-28 -8.61009,-17.7407 -13.3244,-27.5671 -24.65151,-51.3835 -2.84691,-5.9859 -4.94538,-11.485 -4.66325,-12.2202 0.66907,-1.7435 -0.11723,-1.6009 37.59859,-6.8199 82.16219,-11.3692 144.73942,-20.0896 162.5,-22.645 7.7,-1.108 22.325,-3.1202 32.5,-4.4717 10.175,-1.3515 24.575,-3.34633 32,-4.43294 7.425,-1.08662 21.6,-3.0894 31.5,-4.45063 43.93338,-6.04075 70.00106,-9.66433 83,-11.53754 41.09335,-5.92177 85.97514,-12.03841 88.32416,-12.03712 2.54966,10e-4 2.92845,0.72052 8.03289,15.25 11.19298,31.86013 22.74667,59.18253 36.73987,86.88303 8.32191,16.4738 9.31271,19.1853 7.43458,20.346 -1.07741,0.6659 -21.80298,4.8468 -193.0315,38.9399 -65.175,12.9769 -122.775,24.5024 -128,25.6122 -19.32999,4.1058 -124.38343,24.9652 -125.4231,24.904 -0.59229,-0.035 -2.05655,-0.4582 -3.25391,-0.9408 z" id="path3"/>
  <path style="fill:#ffffff" d="m 225.32299,1179.9958 c -1.19735,-0.4825 -3.05588,-2.8165 -4.13007,-5.1866 -1.07418,-2.37 -5.65491,-11.9592 -10.17939,-21.3092 -4.52448,-9.35 -10.27213,-21.275 -12.77254,-26.5 -2.50041,-5.225 -8.58658,-17.825 -13.52482,-28 -8.61009,-17.7407 -13.3244,-27.5671 -24.65151,-51.3835 -2.84691,-5.9859 -4.94538,-11.485 -4.66325,-12.2202 0.66907,-1.7435 -0.11723,-1.6009 37.59859,-6.8199 82.16219,-11.3692 144.73942,-20.0896 162.5,-22.645 7.7,-1.108 22.325,-3.1202 32.5,-4.4717 10.175,-1.3515 24.575,-3.34633 32,-4.43294 7.425,-1.08662 21.6,-3.0894 31.5,-4.45063 43.93338,-6.04075 70.00106,-9.66433 83,-11.53754 41.09335,-5.92177 85.97514,-12.03841 88.32416,-12.03712 2.54966,10e-4 2.92845,0.72052 8.03289,15.25 11.19298,31.86013 22.74667,59.18253 36.73987,86.88303 8.32191,16.4738 9.31271,19.1853 7.43458,20.346 -1.07741,0.6659 -21.80298,4.8468 -193.0315,38.9399 -65.175,12.9769 -122.775,24.5024 -128,25.6122 -19.32999,4.1058 -124.38343,24.9652 -125.4231,24.904 -0.59229,-0.035 -2.05655,-0.4582 -3.25391,-0.9408 z" id="path3"/>
</svg>
