<?xml version="1.0" encoding="UTF-8" standalone="no"?>
<svg version="1.1" width="1600" height="1200" viewBox="0 0 1600 1200" xmlns="http://www.w3.org/2000/svg">
  <path style="fill:#000000" d="m 607.5,230.48559 c -7.15,-1.25332 -25.6,-4.33927 -41,-6.85767 -75.9778,-12.42482 -98.57711,-16.12755 -129,-21.13569 -34.76404,-5.72277 -76.72652,-12.58336 -122.5,-20.02795 -15.125,-2.45992 -31.325,-5.14343 -36,-5.96334 -4.675,-0.81992 -15.7,-2.63135 -24.5,-4.02542 -8.8,-1.39407 -20.05,-3.22788 -25,-4.07514 -4.95,-0.84727 -16.96286,-2.81717 -26.69524,-4.37757 -9.73239,-1.5604 -18.16989,-3.13044 -18.75,-3.48897 -1.87214,-1.15704 -1.18414,-2.94525 6.77486,-17.60872 4.3063,-7.93382 10.07424,-18.70012 12.81766,-23.92512 6.69836,-12.75743 12.93569,-24.33401 21.68428,-40.246385 4.00774,-7.289488 7.82267,-14.266115 8.47762,-15.503615 0.65495,-1.2375 1.73383,-3.2625 2.3975,-4.5 0.66368,-1.2375 2.50644,-4.725 4.09503,-7.75 1.58859,-3.025 3.49407,-6.625 4.2344,-8 15.81001,-29.363598 15.56587,-29 19.47144,-29 1.48367,0 9.62643,1.583069 18.09502,3.51793 16.65556,3.805381 36.24186,8.247784 52.89743,11.997754 5.775,1.300231 18.6,4.213152 28.5,6.473157 9.9,2.260006 21.825,4.960765 26.5,6.001687 4.675,1.040923 16.375,3.693371 26,5.894331 9.625,2.200959 24.475,5.569042 33,7.484627 27.41486,6.160178 47.23958,10.643725 58,13.117247 5.775,1.327513 16.8,3.808624 24.5,5.51358 7.7,1.704957 21.875,4.903668 31.5,7.108247 9.625,2.204579 21.325,4.860918 26,5.902975 4.675,1.042057 15.25,3.440346 23.5,5.329531 8.25,1.889185 25.4625,5.810751 38.25,8.714594 19.06927,4.33033 23.25,5.58333 23.25,6.96825 0,0.92869 -2.22318,5.91573 -4.94041,11.08231 -12.56702,23.89514 -28.50856,61.77079 -39.09821,92.89378 -6.05408,17.79295 -7.4693,21.13836 -8.83382,20.88218 -0.34516,-0.0648 -6.47756,-1.14326 -13.62756,-2.39659 z" id="path24"/>
  <path style="fill:#ffffff" d="m 607.5,230.48559 c -7.15,-1.25332 -25.6,-4.33927 -41,-6.85767 -75.9778,-12.42482 -98.57711,-16.12755 -129,-21.13569 -34.76404,-5.72277 -76.72652,-12.58336 -122.5,-20.02795 -15.125,-2.45992 -31.325,-5.14343 -36,-5.96334 -4.675,-0.81992 -15.7,-2.63135 -24.5,-4.02542 -8.8,-1.39407 -20.05,-3.22788 -25,-4.07514 -4.95,-0.84727 -16.96286,-2.81717 -26.69524,-4.37757 -9.73239,-1.5604 -18.16989,-3.13044 -18.75,-3.48897 -1.87214,-1.15704 -1.18414,-2.94525 6.77486,-17.60872 4.3063,-7.93382 10.07424,-18.70012 12.81766,-23.92512 6.69836,-12.75743 12.93569,-24.33401 21.68428,-40.246385 4.00774,-7.289488 7.82267,-14.266115 8.47762,-15.503615 0.65495,-1.2375 1.73383,-3.2625 2.3975,-4.5 0.66368,-1.2375 2.50644,-4.725 4.09503,-7.75 1.58859,-3.025 3.49407,-6.625 4.2344,-8 15.81001,-29.363598 15.56587,-29 19.47144,-29 1.48367,0 9.62643,1.583069 18.09502,3.51793 16.65556,3.805381 36.24186,8.247784 52.89743,11.997754 5.775,1.300231 18.6,4.213152 28.5,6.473157 9.9,2.260006 21.825,4.960765 26.5,6.001687 4.675,1.040923 16.375,3.693371 26,5.894331 9.625,2.200959 24.475,5.569042 33,7.484627 27.41486,6.160178 47.23958,10.643725 58,13.117247 5.775,1.327513 16.8,3.808624 24.5,5.51358 7.7,1.704957 21.875,4.903668 31.5,7.108247 9.625,2.204579 21.325,4.860918 26,5.902975 4.675,1.042057 15.25,3.440346 23.5,5.329531 8.25,1.889185 25.4625,5.810751 38.25,8.714594 19.06927,4.33033 23.25,5.58333 23.25,6.96825 0,0.92869 -2.22318,5.91573 -4.94041,11.08231 -12.56702,23.89514 -28.50856,61.77079 -39.09821,92.89378 -6.05408,17.79295 -7.4693,21.13836 -8.83382,20.88218 -0.34516,-0.0648 -6.47756,-1.14326 -13.62756,-2.39659 z" id="path24"/>
</svg>
