<?xml version="1.0" encoding="UTF-8" standalone="no"?>
<svg
   version="1.1"
   width="1600"
   height="1200"
   viewBox="0 0 1600 1200"
   id="svg1"
   sodipodi:docname="3.svg"
   inkscape:version="1.4.2 (f4327f4, 2025-05-13)"
   xmlns:inkscape="http://www.inkscape.org/namespaces/inkscape"
   xmlns:sodipodi="http://sodipodi.sourceforge.net/DTD/sodipodi-0.dtd"
   xmlns="http://www.w3.org/2000/svg"
   xmlns:svg="http://www.w3.org/2000/svg">
  <defs
     id="defs1" />
  <sodipodi:namedview
     id="namedview1"
     pagecolor="#ffffff"
     bordercolor="#000000"
     borderopacity="0.25"
     inkscape:showpageshadow="2"
     inkscape:pageopacity="0.0"
     inkscape:pagecheckerboard="0"
     inkscape:deskcolor="#d1d1d1"
     inkscape:zoom="0.67333333"
     inkscape:cx="799.75248"
     inkscape:cy="600"
     inkscape:window-width="1920"
     inkscape:window-height="1010"
     inkscape:window-x="-6"
     inkscape:window-y="-6"
     inkscape:window-maximized="1"
     inkscape:current-layer="svg1" />
  <path
     style="fill:#000000"
     d="m 1428.5,562.33416 c -22.0903,-0.86505 -84.017,-3.49258 -102,-4.32784 -11.55,-0.53646 -31.35,-1.43073 -44,-1.98728 -12.65,-0.55654 -32.9,-1.47423 -45,-2.03933 -12.1,-0.56509 -33.25,-1.46474 -47,-1.99923 -13.75,-0.53448 -34.45,-1.40267 -46,-1.92929 -11.55,-0.52663 -33.825,-1.45442 -49.5,-2.06176 -32.0033,-1.24 -34.8836,-1.52262 -35.6413,-3.49707 -2.0819,-5.42531 9.6262,-92.90587 12.8681,-96.14774 1.1488,-1.14876 3.621,-1.12751 15.8174,0.13596 7.9507,0.82365 19.1808,1.96634 24.9558,2.53933 5.775,0.57299 25.8,2.59152 44.5,4.48562 49.6386,5.02785 52.472,5.31225 70,7.02634 8.8,0.86056 24.325,2.4421 34.5,3.51452 30.2491,3.1882 36.7228,3.84969 53.5,5.46667 8.8,0.84814 27.025,2.66324 40.5,4.03355 13.475,1.37031 33.5,3.37761 44.5,4.46066 11,1.08305 23.825,2.41014 28.5,2.94909 4.675,0.53895 12.6231,1.28084 17.6624,1.64864 5.0394,0.36781 9.7336,1.02168 10.4315,1.45306 1.4053,0.8685 1.6201,-0.53573 -4.4266,28.94194 -1.9744,9.625 -4.5288,23.99038 -5.6765,31.92307 -1.1477,7.93269 -2.3167,14.79519 -2.5978,15.25 -0.2811,0.45481 -2.397,0.73879 -4.702,0.63107 -2.3051,-0.10772 -7.341,-0.31921 -11.191,-0.46998 z"
     id="path16" />
  <path
     style="fill:#ffffff"
     d="m 1428.5,562.33416 c -22.0903,-0.86505 -84.017,-3.49258 -102,-4.32784 -11.55,-0.53646 -31.35,-1.43073 -44,-1.98728 -12.65,-0.55654 -32.9,-1.47423 -45,-2.03933 -12.1,-0.56509 -33.25,-1.46474 -47,-1.99923 -13.75,-0.53448 -34.45,-1.40267 -46,-1.92929 -11.55,-0.52663 -33.825,-1.45442 -49.5,-2.06176 -32.0033,-1.24 -34.8836,-1.52262 -35.6413,-3.49707 -2.0819,-5.42531 9.6262,-92.90587 12.8681,-96.14774 1.1488,-1.14876 3.621,-1.12751 15.8174,0.13596 7.9507,0.82365 19.1808,1.96634 24.9558,2.53933 5.775,0.57299 25.8,2.59152 44.5,4.48562 49.6386,5.02785 52.472,5.31225 70,7.02634 8.8,0.86056 24.325,2.4421 34.5,3.51452 30.2491,3.1882 36.7228,3.84969 53.5,5.46667 8.8,0.84814 27.025,2.66324 40.5,4.03355 13.475,1.37031 33.5,3.37761 44.5,4.46066 11,1.08305 23.825,2.41014 28.5,2.94909 4.675,0.53895 12.6231,1.28084 17.6624,1.64864 5.0394,0.36781 9.7336,1.02168 10.4315,1.45306 1.4053,0.8685 1.6201,-0.53573 -4.4266,28.94194 -1.9744,9.625 -4.5288,23.99038 -5.6765,31.92307 -1.1477,7.93269 -2.3167,14.79519 -2.5978,15.25 -0.2811,0.45481 -2.397,0.73879 -4.702,0.63107 -2.3051,-0.10772 -7.341,-0.31921 -11.191,-0.46998 z"
     id="path1" />
  <circle
     style="fill:#000000"
     id="path2"
     cx="1082.8514"
     cy="478.44556"
     r="6.6831684" />
</svg>
