<?xml version="1.0" encoding="UTF-8" standalone="no"?>
<svg
   version="1.1"
   width="1600"
   height="1200"
   viewBox="0 0 1600 1200"
   id="svg1"
   sodipodi:docname="4.svg"
   inkscape:version="1.4.2 (f4327f4, 2025-05-13)"
   xmlns:inkscape="http://www.inkscape.org/namespaces/inkscape"
   xmlns:sodipodi="http://sodipodi.sourceforge.net/DTD/sodipodi-0.dtd"
   xmlns="http://www.w3.org/2000/svg"
   xmlns:svg="http://www.w3.org/2000/svg">
  <defs
     id="defs1" />
  <sodipodi:namedview
     id="namedview1"
     pagecolor="#ffffff"
     bordercolor="#000000"
     borderopacity="0.25"
     inkscape:showpageshadow="2"
     inkscape:pageopacity="0.0"
     inkscape:pagecheckerboard="0"
     inkscape:deskcolor="#d1d1d1"
     inkscape:zoom="0.67333333"
     inkscape:cx="799.75248"
     inkscape:cy="600"
     inkscape:window-width="1920"
     inkscape:window-height="1010"
     inkscape:window-x="-6"
     inkscape:window-y="-6"
     inkscape:window-maximized="1"
     inkscape:current-layer="svg1" />
  <path
     style="fill:#000000"
     d="m 1107.8292,882.32592 c -4.5172,-1.19518 -32.4321,-91.18785 -29.2458,-94.28312 0.8596,-0.83506 15.923,-2.29099 57.4166,-5.54951 48.7351,-3.8272 60.8252,-4.78016 101.5,-8.00039 24.2,-1.91591 49.175,-3.93872 55.5,-4.49513 6.325,-0.55641 20.5,-1.67493 31.5,-2.48559 11,-0.81067 25.4,-1.93134 32,-2.49038 42.5749,-3.60622 87.9165,-7.02414 93.1671,-7.02306 l 6.1672,10e-4 1.1149,5.25 c 2.2021,10.3691 7.1932,27.60131 13.7625,47.51587 5.7793,17.51976 6.4889,20.44377 5.2367,21.57879 -0.8158,0.73954 -8.8727,2.29642 -18.4484,3.56493 -9.35,1.2386 -28.025,3.78422 -41.5,5.65693 -13.475,1.8727 -34.4,4.74214 -46.5,6.37653 -12.1,1.63438 -30.325,4.13019 -40.5,5.54624 -10.175,1.41604 -28.4,3.9166 -40.5,5.55679 -12.1,1.64019 -33.25,4.53382 -47,6.43029 -13.75,1.89646 -33.55,4.61015 -44,6.0304 -10.45,1.42025 -23.725,3.26231 -29.5,4.09347 -5.775,0.83116 -13.65,1.926 -17.5,2.43298 -3.85,0.50699 -13.75,1.82939 -22,2.93869 -14.9978,2.01659 -17.5378,2.18297 -20.6708,1.35401 z"
     id="path9" />
  <path
     style="fill:#ffffff"
     d="m 1107.8292,882.32592 c -4.5172,-1.19518 -32.4321,-91.18785 -29.2458,-94.28312 0.8596,-0.83506 15.923,-2.29099 57.4166,-5.54951 48.7351,-3.8272 60.8252,-4.78016 101.5,-8.00039 24.2,-1.91591 49.175,-3.93872 55.5,-4.49513 6.325,-0.55641 20.5,-1.67493 31.5,-2.48559 11,-0.81067 25.4,-1.93134 32,-2.49038 42.5749,-3.60622 87.9165,-7.02414 93.1671,-7.02306 l 6.1672,10e-4 1.1149,5.25 c 2.2021,10.3691 7.1932,27.60131 13.7625,47.51587 5.7793,17.51976 6.4889,20.44377 5.2367,21.57879 -0.8158,0.73954 -8.8727,2.29642 -18.4484,3.56493 -9.35,1.2386 -28.025,3.78422 -41.5,5.65693 -13.475,1.8727 -34.4,4.74214 -46.5,6.37653 -12.1,1.63438 -30.325,4.13019 -40.5,5.54624 -10.175,1.41604 -28.4,3.9166 -40.5,5.55679 -12.1,1.64019 -33.25,4.53382 -47,6.43029 -13.75,1.89646 -33.55,4.61015 -44,6.0304 -10.45,1.42025 -23.725,3.26231 -29.5,4.09347 -5.775,0.83116 -13.65,1.926 -17.5,2.43298 -3.85,0.50699 -13.75,1.82939 -22,2.93869 -14.9978,2.01659 -17.5378,2.18297 -20.6708,1.35401 z"
     id="path1" />
  <circle
     style="fill:#000000"
     id="path2"
     cx="1100.1782"
     cy="800.30695"
     r="6.6831684" />
</svg>
