<?xml version="1.0" encoding="UTF-8" standalone="no"?>
<svg
   version="1.1"
   width="1600"
   height="1200"
   viewBox="0 0 1600 1200"
   id="svg1"
   sodipodi:docname="5.svg"
   inkscape:version="1.4.2 (f4327f4, 2025-05-13)"
   xmlns:inkscape="http://www.inkscape.org/namespaces/inkscape"
   xmlns:sodipodi="http://sodipodi.sourceforge.net/DTD/sodipodi-0.dtd"
   xmlns="http://www.w3.org/2000/svg"
   xmlns:svg="http://www.w3.org/2000/svg">
  <defs
     id="defs1" />
  <sodipodi:namedview
     id="namedview1"
     pagecolor="#ffffff"
     bordercolor="#000000"
     borderopacity="0.25"
     inkscape:showpageshadow="2"
     inkscape:pageopacity="0.0"
     inkscape:pagecheckerboard="0"
     inkscape:deskcolor="#d1d1d1"
     inkscape:zoom="0.67333333"
     inkscape:cx="799.75248"
     inkscape:cy="600"
     inkscape:window-width="1920"
     inkscape:window-height="1010"
     inkscape:window-x="-6"
     inkscape:window-y="-6"
     inkscape:window-maximized="1"
     inkscape:current-layer="svg1" />
  <path
     style="fill:#000000"
     d="m 1439,465.96032 c -9.625,-0.99183 -22,-2.30597 -27.5,-2.92032 -5.5,-0.61435 -21.25,-2.24801 -35,-3.63037 -13.75,-1.38235 -35.8,-3.62618 -49,-4.98627 -66.9427,-6.89762 -94.1966,-9.69162 -117,-11.99454 -30.3515,-3.06521 -37.4936,-3.79701 -62.5,-6.40391 -10.725,-1.11808 -28.95,-2.94027 -40.5,-4.04932 -25.8716,-2.48423 -31.5018,-3.52059 -31.4948,-5.79731 0.01,-2.91313 8.631,-35.99807 13.8712,-53.22729 5.4866,-18.03962 12.7877,-38.71781 14.3707,-40.70099 1.6307,-2.04289 7.8389,-1.4965 36.2529,3.19067 26.0836,4.30274 59.0183,9.64061 105,17.01782 12.1,1.9413 26.05,4.21407 31,5.05061 4.95,0.83653 15.975,2.62337 24.5,3.97075 8.525,1.34737 27.875,4.46487 43,6.92776 27.3501,4.45359 73.1347,11.85583 97,15.68253 6.875,1.10237 20.9375,3.41584 31.25,5.14103 20.8593,3.48959 20.5415,3.29083 16.8817,10.55867 -3.844,7.63356 -14.1329,34.25631 -19.2114,49.71016 -2.8919,8.8 -5.6872,16.5625 -6.2116,17.25 -1.1651,1.52725 -2.7009,1.47817 -24.7087,-0.78968 z"
     id="path19" />
  <path
     style="fill:#ffffff"
     d="m 1439,465.96032 c -9.625,-0.99183 -22,-2.30597 -27.5,-2.92032 -5.5,-0.61435 -21.25,-2.24801 -35,-3.63037 -13.75,-1.38235 -35.8,-3.62618 -49,-4.98627 -66.9427,-6.89762 -94.1966,-9.69162 -117,-11.99454 -30.3515,-3.06521 -37.4936,-3.79701 -62.5,-6.40391 -10.725,-1.11808 -28.95,-2.94027 -40.5,-4.04932 -25.8716,-2.48423 -31.5018,-3.52059 -31.4948,-5.79731 0.01,-2.91313 8.631,-35.99807 13.8712,-53.22729 5.4866,-18.03962 12.7877,-38.71781 14.3707,-40.70099 1.6307,-2.04289 7.8389,-1.4965 36.2529,3.19067 26.0836,4.30274 59.0183,9.64061 105,17.01782 12.1,1.9413 26.05,4.21407 31,5.05061 4.95,0.83653 15.975,2.62337 24.5,3.97075 8.525,1.34737 27.875,4.46487 43,6.92776 27.3501,4.45359 73.1347,11.85583 97,15.68253 6.875,1.10237 20.9375,3.41584 31.25,5.14103 20.8593,3.48959 20.5415,3.29083 16.8817,10.55867 -3.844,7.63356 -14.1329,34.25631 -19.2114,49.71016 -2.8919,8.8 -5.6872,16.5625 -6.2116,17.25 -1.1651,1.52725 -2.7009,1.47817 -24.7087,-0.78968 z"
     id="path1" />
  <circle
     style="fill:#000000"
     id="path2"
     cx="1103.6633"
     cy="380.56436"
     r="6.6831684" />
</svg>
