<?xml version="1.0" encoding="UTF-8" standalone="no"?>
<svg
   version="1.1"
   width="1600"
   height="1200"
   viewBox="0 0 1600 1200"
   id="svg1"
   sodipodi:docname="6.svg"
   inkscape:version="1.4.2 (f4327f4, 2025-05-13)"
   xmlns:inkscape="http://www.inkscape.org/namespaces/inkscape"
   xmlns:sodipodi="http://sodipodi.sourceforge.net/DTD/sodipodi-0.dtd"
   xmlns="http://www.w3.org/2000/svg"
   xmlns:svg="http://www.w3.org/2000/svg">
  <defs
     id="defs1" />
  <sodipodi:namedview
     id="namedview1"
     pagecolor="#ffffff"
     bordercolor="#000000"
     borderopacity="0.25"
     inkscape:showpageshadow="2"
     inkscape:pageopacity="0.0"
     inkscape:pagecheckerboard="0"
     inkscape:deskcolor="#d1d1d1"
     inkscape:zoom="0.67333333"
     inkscape:cx="799.75248"
     inkscape:cy="600"
     inkscape:window-width="1920"
     inkscape:window-height="1010"
     inkscape:window-x="-6"
     inkscape:window-y="-6"
     inkscape:window-maximized="1"
     inkscape:current-layer="svg1" />
  <path
     style="fill:#000000"
     d="m 1166.8546,992.17971 c -2.1326,-0.88095 -17.9361,-24.79125 -28.1869,-42.64604 C 1130.6404,935.55181 1115,904.18913 1115,902.07438 c 0,-1.55001 3.4157,-2.68385 10.5,-3.48542 3.3,-0.37339 13.425,-1.76581 22.5,-3.09426 9.075,-1.32846 25.05,-3.57152 35.5,-4.9846 10.45,-1.41307 23.275,-3.22361 28.5,-4.02341 5.225,-0.7998 26.15,-3.72536 46.5,-6.50123 20.35,-2.77587 46.225,-6.36635 57.5,-7.97883 11.275,-1.61249 29.05,-4.08294 39.5,-5.4899 10.45,-1.40696 21.7,-2.98949 25,-3.51673 3.3,-0.52724 14.325,-2.089 24.5,-3.47059 10.175,-1.38158 31.3118,-4.31589 46.9707,-6.52069 C 1467.6296,850.80393 1481.48,849 1482.7493,849 c 1.8786,0 2.806,1.16244 4.9862,6.25 5.03,11.73797 18.9912,39.23162 26.1914,51.57858 3.9542,6.78072 7.0508,13.04343 6.8813,13.91714 -0.1695,0.8737 -1.4332,1.95041 -2.8082,2.39268 -1.7884,0.57523 -170.8783,34.48409 -200,40.10747 -15.2649,2.94764 -115.6178,23.07361 -119,23.86568 -5.5236,1.29356 -29.3096,5.90225 -30,5.81272 -0.275,-0.0357 -1.2404,-0.37071 -2.1454,-0.74456 z"
     id="path6" />
  <path
     style="fill:#ffffff"
     d="m 1166.8546,992.17971 c -2.1326,-0.88095 -17.9361,-24.79125 -28.1869,-42.64604 C 1130.6404,935.55181 1115,904.18913 1115,902.07438 c 0,-1.55001 3.4157,-2.68385 10.5,-3.48542 3.3,-0.37339 13.425,-1.76581 22.5,-3.09426 9.075,-1.32846 25.05,-3.57152 35.5,-4.9846 10.45,-1.41307 23.275,-3.22361 28.5,-4.02341 5.225,-0.7998 26.15,-3.72536 46.5,-6.50123 20.35,-2.77587 46.225,-6.36635 57.5,-7.97883 11.275,-1.61249 29.05,-4.08294 39.5,-5.4899 10.45,-1.40696 21.7,-2.98949 25,-3.51673 3.3,-0.52724 14.325,-2.089 24.5,-3.47059 10.175,-1.38158 31.3118,-4.31589 46.9707,-6.52069 C 1467.6296,850.80393 1481.48,849 1482.7493,849 c 1.8786,0 2.806,1.16244 4.9862,6.25 5.03,11.73797 18.9912,39.23162 26.1914,51.57858 3.9542,6.78072 7.0508,13.04343 6.8813,13.91714 -0.1695,0.8737 -1.4332,1.95041 -2.8082,2.39268 -1.7884,0.57523 -170.8783,34.48409 -200,40.10747 -15.2649,2.94764 -115.6178,23.07361 -119,23.86568 -5.5236,1.29356 -29.3096,5.90225 -30,5.81272 -0.275,-0.0357 -1.2404,-0.37071 -2.1454,-0.74456 z"
     id="path1" />
  <circle
     style="fill:#000000"
     id="path2"
     cx="1140.8514"
     cy="916.60394"
     r="6.6831684" />
</svg>
