<?xml version="1.0" encoding="UTF-8" standalone="no"?>
<svg
   version="1.1"
   width="1600"
   height="1200"
   viewBox="0 0 1600 1200"
   id="svg1"
   sodipodi:docname="7.svg"
   inkscape:version="1.4.2 (f4327f4, 2025-05-13)"
   xmlns:inkscape="http://www.inkscape.org/namespaces/inkscape"
   xmlns:sodipodi="http://sodipodi.sourceforge.net/DTD/sodipodi-0.dtd"
   xmlns="http://www.w3.org/2000/svg"
   xmlns:svg="http://www.w3.org/2000/svg">
  <defs
     id="defs1" />
  <sodipodi:namedview
     id="namedview1"
     pagecolor="#ffffff"
     bordercolor="#000000"
     borderopacity="0.25"
     inkscape:showpageshadow="2"
     inkscape:pageopacity="0.0"
     inkscape:pagecheckerboard="0"
     inkscape:deskcolor="#d1d1d1"
     showgrid="false"
     inkscape:zoom="0.67333333"
     inkscape:cx="799.75248"
     inkscape:cy="600"
     inkscape:window-width="1920"
     inkscape:window-height="1010"
     inkscape:window-x="-6"
     inkscape:window-y="-6"
     inkscape:window-maximized="1"
     inkscape:current-layer="svg1" />
  <path
     style="fill:#000000"
     d="m 1474,372.52152 c -23.7554,-3.99978 -49.0719,-8.16619 -58.5,-9.62753 -3.85,-0.59674 -10.375,-1.69062 -14.5,-2.43084 -4.125,-0.74022 -13.125,-2.26027 -20,-3.37789 -6.875,-1.11762 -22.175,-3.60376 -34,-5.52475 -59.9313,-9.73592 -90.9101,-14.81925 -104.5,-17.14745 -8.25,-1.41337 -17.475,-2.9565 -20.5,-3.42917 -3.025,-0.47267 -9.775,-1.52728 -15,-2.34357 -5.225,-0.8163 -15.125,-2.45091 -22,-3.63248 -6.875,-1.18156 -14.975,-2.53525 -18,-3.00819 -52.8709,-8.26605 -54.0043,-8.50398 -53.9858,-11.33251 0.017,-2.61476 18.3718,-40.18505 26.4629,-54.16714 9.5478,-16.49934 24.3556,-38.5 25.913,-38.5 1.8905,0 10.0566,1.66103 20.1099,4.09047 4.4,1.06328 15.2,3.54221 24,5.50872 8.8,1.96651 18.7,4.17886 22,4.91633 5.5346,1.23685 31.4171,7.08397 58,13.10278 6.05,1.36983 17.75,4.01307 26,5.87387 17.7325,3.99961 30.5828,6.91584 55,12.48161 9.9,2.25665 21.825,4.96334 26.5,6.01486 4.675,1.05153 15.475,3.48473 24,5.40712 8.525,1.92238 26.525,5.97668 40,9.00954 13.475,3.03286 35.525,8.02653 49,11.09706 13.475,3.07053 26.6375,6.05091 29.25,6.62307 2.6125,0.57216 4.75,1.46946 4.75,1.99398 0,0.52453 -3.5131,5.99974 -7.807,12.16714 -10.7537,15.44595 -17.77,26.7396 -27.497,44.2605 -8.1129,14.61334 -8.3797,14.95641 -11.7487,15.10535 -1.896,0.0838 -12.2223,-1.32508 -22.9473,-3.13088 z"
     id="path22" />
  <path
     style="fill:#ffffff"
     d="m 1474,372.52152 c -23.7554,-3.99978 -49.0719,-8.16619 -58.5,-9.62753 -3.85,-0.59674 -10.375,-1.69062 -14.5,-2.43084 -4.125,-0.74022 -13.125,-2.26027 -20,-3.37789 -6.875,-1.11762 -22.175,-3.60376 -34,-5.52475 -59.9313,-9.73592 -90.9101,-14.81925 -104.5,-17.14745 -8.25,-1.41337 -17.475,-2.9565 -20.5,-3.42917 -3.025,-0.47267 -9.775,-1.52728 -15,-2.34357 -5.225,-0.8163 -15.125,-2.45091 -22,-3.63248 -6.875,-1.18156 -14.975,-2.53525 -18,-3.00819 -52.8709,-8.26605 -54.0043,-8.50398 -53.9858,-11.33251 0.017,-2.61476 18.3718,-40.18505 26.4629,-54.16714 9.5478,-16.49934 24.3556,-38.5 25.913,-38.5 1.8905,0 10.0566,1.66103 20.1099,4.09047 4.4,1.06328 15.2,3.54221 24,5.50872 8.8,1.96651 18.7,4.17886 22,4.91633 5.5346,1.23685 31.4171,7.08397 58,13.10278 6.05,1.36983 17.75,4.01307 26,5.87387 17.7325,3.99961 30.5828,6.91584 55,12.48161 9.9,2.25665 21.825,4.96334 26.5,6.01486 4.675,1.05153 15.475,3.48473 24,5.40712 8.525,1.92238 26.525,5.97668 40,9.00954 13.475,3.03286 35.525,8.02653 49,11.09706 13.475,3.07053 26.6375,6.05091 29.25,6.62307 2.6125,0.57216 4.75,1.46946 4.75,1.99398 0,0.52453 -3.5131,5.99974 -7.807,12.16714 -10.7537,15.44595 -17.77,26.7396 -27.497,44.2605 -8.1129,14.61334 -8.3797,14.95641 -11.7487,15.10535 -1.896,0.0838 -12.2223,-1.32508 -22.9473,-3.13088 z"
     id="path1" />
  <circle
     style="fill:#000000"
     id="path2"
     cx="1149.9109"
     cy="268.65347"
     r="6.6831684" />
</svg>
