<?xml version="1.0" encoding="UTF-8" standalone="no"?>
<svg
   version="1.1"
   width="1600"
   height="1200"
   viewBox="0 0 1600 1200"
   id="svg1"
   sodipodi:docname="8.svg"
   inkscape:version="1.4.2 (f4327f4, 2025-05-13)"
   xmlns:inkscape="http://www.inkscape.org/namespaces/inkscape"
   xmlns:sodipodi="http://sodipodi.sourceforge.net/DTD/sodipodi-0.dtd"
   xmlns="http://www.w3.org/2000/svg"
   xmlns:svg="http://www.w3.org/2000/svg">
  <defs
     id="defs1" />
  <sodipodi:namedview
     id="namedview1"
     pagecolor="#ffffff"
     bordercolor="#000000"
     borderopacity="0.25"
     inkscape:showpageshadow="2"
     inkscape:pageopacity="0.0"
     inkscape:pagecheckerboard="0"
     inkscape:deskcolor="#d1d1d1"
     showgrid="false"
     inkscape:zoom="0.67333333"
     inkscape:cx="799.75248"
     inkscape:cy="600"
     inkscape:window-width="1920"
     inkscape:window-height="1010"
     inkscape:window-x="-6"
     inkscape:window-y="-6"
     inkscape:window-maximized="1"
     inkscape:current-layer="svg1" />
  <path
     style="fill:#000000"
     d="m 584.16897,664.8668 c -1.66841,-0.61718 -1.91053,-2.44527 -2.50784,-18.93528 -0.80606,-22.25336 -0.66726,-86.96851 0.20575,-95.93152 l 0.63312,-6.5 17.5,0.15014 c 9.625,0.0826 42.475,1.09741 73,2.25519 30.525,1.15777 86.55,3.23221 124.5,4.60986 37.95,1.37765 84.525,3.17154 103.5,3.98642 18.975,0.81488 59.46611,2.41399 89.98024,3.55357 30.51416,1.13958 55.55576,2.15586 55.64796,2.25839 0.5801,0.64467 0.7338,96.65763 0.1557,97.23581 -0.6726,0.67261 -87.69828,2.20272 -335.2839,5.89506 -57.75,0.86124 -109.60897,1.68731 -115.24216,1.8357 -5.63319,0.14839 -11.07318,-0.0376 -12.08887,-0.41334 z"
     id="path14" />
  <path
     style="fill:#ffffff"
     d="m 584.16897,664.8668 c -1.66841,-0.61718 -1.91053,-2.44527 -2.50784,-18.93528 -0.80606,-22.25336 -0.66726,-86.96851 0.20575,-95.93152 l 0.63312,-6.5 17.5,0.15014 c 9.625,0.0826 42.475,1.09741 73,2.25519 30.525,1.15777 86.55,3.23221 124.5,4.60986 37.95,1.37765 84.525,3.17154 103.5,3.98642 18.975,0.81488 59.46611,2.41399 89.98024,3.55357 30.51416,1.13958 55.55576,2.15586 55.64796,2.25839 0.5801,0.64467 0.7338,96.65763 0.1557,97.23581 -0.6726,0.67261 -87.69828,2.20272 -335.2839,5.89506 -57.75,0.86124 -109.60897,1.68731 -115.24216,1.8357 -5.63319,0.14839 -11.07318,-0.0376 -12.08887,-0.41334 z"
     id="path1" />
  <circle
     style="fill:#000000"
     id="path2"
     cx="598.88116"
     cy="573.76239"
     r="6.6831684" />
</svg>
