<?xml version="1.0" encoding="UTF-8" standalone="no"?>
<svg
   version="1.1"
   width="1600"
   height="1200"
   viewBox="0 0 1600 1200"
   id="svg1"
   sodipodi:docname="9.svg"
   inkscape:version="1.4.2 (f4327f4, 2025-05-13)"
   xmlns:inkscape="http://www.inkscape.org/namespaces/inkscape"
   xmlns:sodipodi="http://sodipodi.sourceforge.net/DTD/sodipodi-0.dtd"
   xmlns="http://www.w3.org/2000/svg"
   xmlns:svg="http://www.w3.org/2000/svg">
  <defs
     id="defs1" />
  <sodipodi:namedview
     id="namedview1"
     pagecolor="#ffffff"
     bordercolor="#000000"
     borderopacity="0.25"
     inkscape:showpageshadow="2"
     inkscape:pageopacity="0.0"
     inkscape:pagecheckerboard="0"
     inkscape:deskcolor="#d1d1d1"
     showgrid="false"
     inkscape:zoom="0.67333333"
     inkscape:cx="799.75248"
     inkscape:cy="600"
     inkscape:window-width="1920"
     inkscape:window-height="1010"
     inkscape:window-x="-6"
     inkscape:window-y="-6"
     inkscape:window-maximized="1"
     inkscape:current-layer="svg1" />
  <path
     style="display:inline;fill:#ffffff"
     d="m 598.84301,805.37911 c -1.90028,-0.56187 -2.52134,-3.67241 -6.26519,-31.37911 -3.06038,-22.64858 -5.08876,-41.02928 -7.06265,-64 -1.85453,-21.58173 -1.9063,-26.94107 -0.26517,-27.45171 1.67323,-0.52062 69.47747,-2.18276 186.75,-4.57793 53.075,-1.084 115.175,-2.4125 138,-2.95222 98.1094,-2.31988 138.2703,-3.08116 138.7219,-2.62958 0.2651,0.26514 1.3289,8.72367 2.3639,18.79675 2.2383,21.78418 2.907,26.65038 7.578,55.14358 2.5383,15.48397 3.2679,22.13944 2.51,22.89727 -1.1572,1.1572 -8.9647,1.87621 -78.6738,7.24517 -25.3,1.94859 -51.625,3.99768 -58.5,4.55352 -6.875,0.55584 -21.5,1.69743 -32.5,2.53685 -11,0.83943 -28.1,2.18799 -38,2.99679 -9.9,0.80881 -29.925,2.38052 -44.5,3.49268 -14.575,1.11216 -37.975,2.89891 -52,3.97054 -14.025,1.07164 -36.525,2.85812 -50,3.96996 -13.475,1.11185 -33.725,2.68887 -45,3.50451 -11.275,0.81563 -25.45,1.92176 -31.5,2.45806 -15.34317,1.36008 -29.69189,2.00592 -31.65699,1.42487 z"
     id="path11" />
  <circle
     style="fill:#000000"
     id="path2"
     cx="599.68317"
     cy="737.68317"
     r="6.6831684" />
</svg>
