<svg xmlns="http://www.w3.org/2000/svg" viewBox="0 0 64 64" width="64" height="64">
  <!-- Pixie Idle 1 - Sample sprite showing the format -->
  <defs>
    <!-- Gradient for magical glow -->
    <radialGradient id="pixieGlow" cx="50%" cy="50%" r="50%">
      <stop offset="0%" style="stop-color:#FFD700;stop-opacity:0.8"/>
      <stop offset="100%" style="stop-color:#FFD700;stop-opacity:0.2"/>
    </radialGradient>
    
    <!-- Wing gradient -->
    <linearGradient id="wingGrad" x1="0%" y1="0%" x2="100%" y2="100%">
      <stop offset="0%" style="stop-color:#E6E6FA;stop-opacity:0.9"/>
      <stop offset="50%" style="stop-color:#DDA0DD;stop-opacity:0.7"/>
      <stop offset="100%" style="stop-color:#E6E6FA;stop-opacity:0.5"/>
    </linearGradient>
  </defs>
  
  <!-- Magical aura (blends with constellation) -->
  <circle cx="32" cy="32" r="28" fill="url(#pixieGlow)" opacity="0.3"/>
  
  <!-- Wings (behind body) -->
  <g opacity="0.8">
    <!-- Left wing -->
    <ellipse cx="20" cy="25" rx="8" ry="15" fill="url(#wingGrad)" 
             transform="rotate(-20 20 25)"/>
    <!-- Right wing -->
    <ellipse cx="44" cy="25" rx="8" ry="15" fill="url(#wingGrad)" 
             transform="rotate(20 44 25)"/>
  </g>
  
  <!-- Body -->
  <ellipse cx="32" cy="35" rx="4" ry="8" fill="#FFB6C1" opacity="0.9"/>
  
  <!-- Head -->
  <circle cx="32" cy="22" r="6" fill="#FFDAB9" opacity="0.9"/>
  
  <!-- Hair -->
  <path d="M26 18 Q32 12 38 18 Q35 16 32 16 Q29 16 26 18" 
        fill="#DDA0DD" opacity="0.8"/>
  
  <!-- Eyes -->
  <circle cx="29" cy="21" r="1.5" fill="#4169E1" opacity="0.9"/>
  <circle cx="35" cy="21" r="1.5" fill="#4169E1" opacity="0.9"/>
  
  <!-- Arms -->
  <ellipse cx="28" cy="32" rx="2" ry="5" fill="#FFDAB9" opacity="0.8"/>
  <ellipse cx="36" cy="32" rx="2" ry="5" fill="#FFDAB9" opacity="0.8"/>
  
  <!-- Legs -->
  <ellipse cx="30" cy="42" rx="2" ry="6" fill="#FFDAB9" opacity="0.8"/>
  <ellipse cx="34" cy="42" rx="2" ry="6" fill="#FFDAB9" opacity="0.8"/>
  
  <!-- Sparkles around pixie -->
  <g opacity="0.6">
    <circle cx="18" cy="15" r="1" fill="#FFD700">
      <animate attributeName="opacity" values="0.3;1;0.3" dur="2s" repeatCount="indefinite"/>
    </circle>
    <circle cx="46" cy="20" r="1" fill="#FFD700">
      <animate attributeName="opacity" values="1;0.3;1" dur="2.5s" repeatCount="indefinite"/>
    </circle>
    <circle cx="25" cy="50" r="1" fill="#FFD700">
      <animate attributeName="opacity" values="0.5;1;0.5" dur="1.8s" repeatCount="indefinite"/>
    </circle>
    <circle cx="40" cy="48" r="1" fill="#FFD700">
      <animate attributeName="opacity" values="1;0.2;1" dur="2.2s" repeatCount="indefinite"/>
    </circle>
  </g>
</svg>
